<?xml version="1.0" encoding="UTF-8" standalone="no"?>
<!DOCTYPE svg PUBLIC "-//W3C//DTD SVG 1.1//EN" "http://www.w3.org/Graphics/SVG/1.1/DTD/svg11.dtd">
<!-- Generated by Microsoft Visio, SVG Export Drawing1.svg Page-1 -->
<svg xmlns="http://www.w3.org/2000/svg" xmlns:xlink="http://www.w3.org/1999/xlink" xmlns:ev="http://www.w3.org/2001/xml-events"
		xmlns:v="http://schemas.microsoft.com/visio/2003/SVGExtensions/" width="1.70159in" height="0.988379in"
		viewBox="0 0 122.515 71.1633" xml:space="preserve" color-interpolation-filters="sRGB" class="st2">
	<v:documentProperties v:langID="1033" v:metric="true" v:viewMarkup="false"/>

	<style type="text/css">
	<![CDATA[
		.st1 {fill:#231f20;stroke:none;stroke-linecap:butt;stroke-width:0.1}
		.st2 {fill:none;fill-rule:evenodd;font-size:12px;overflow:visible;stroke-linecap:square;stroke-miterlimit:3}
	]]>
	</style>

	<g v:mID="0" v:index="1" v:groupContext="foregroundPage">
		<title>Page-1</title>
		<v:pageProperties v:drawingScale="0.0393701" v:pageScale="0.0393701" v:drawingUnits="24" v:shadowOffsetX="9"
				v:shadowOffsetY="-9"/>
		<g id="group26-1" transform="translate(0.1,-0.1)" v:mID="26" v:groupContext="group">
			<title>Sheet.26</title>
			<g id="shape3-2" v:mID="3" v:groupContext="shape" transform="translate(26.5723,92.7907) scale(1,-1)">
				<title>path862</title>
				<rect x="0" y="23.3747" width="21.4394" height="47.7886" class="st1"/>
			</g>
			<g id="shape4-4" v:mID="4" v:groupContext="shape" transform="translate(-7.99361E-15,71.3633) scale(1,-1)">
				<title>path864</title>
				<rect x="0" y="1.9473" width="21.4398" height="69.216" class="st1"/>
			</g>
			<g id="shape5-6" v:mID="5" v:groupContext="shape" transform="translate(50.6785,119.527) scale(1,-1)">
				<title>path866</title>
				<path d="M22.76 59.71 C22.76 66.01 17.66 71.16 11.32 71.16 C5.1 71.16 0 66.01 0 59.71 C0 53.41 5.1 48.36 11.32 48.36
							 C17.66 48.36 22.76 53.41 22.76 59.71 Z" class="st1"/>
			</g>
			<g id="shape6-8" v:mID="6" v:groupContext="shape" transform="translate(73.4383,92.7907) scale(1,-1)">
				<title>path868</title>
				<path d="M27.5 71.16 L27.5 43.43 C27.5 40.97 26.49 39.74 24.46 39.74 C22.41 39.74 21.38 40.97 21.38 43.43 L21.38
							 71.16 L0 71.16 L0 48.77 C0 40.88 1.85 34.71 5.56 30.27 C10.33 24.59 16.62 22 24.44 22 C32.26 22 38.55
							 24.59 43.32 30.27 C47.02 34.71 48.88 40.88 48.88 48.77 L48.88 71.16 L27.5 71.16 Z" class="st1"/>
			</g>
		</g>
	</g>
</svg>
